<svg width="46" height="49" viewBox="0 0 46 49" fill="none" xmlns="http://www.w3.org/2000/svg">
<g clip-path="url(#clip0)">
<path d="M45.9518 14.18C45.8448 11.6173 45.4524 9.85547 44.8902 8.32882C44.3102 6.70833 43.4179 5.2575 42.2489 4.05142C41.1068 2.82657 39.7238 1.87481 38.2069 1.27196C36.7528 0.678304 35.0931 0.263887 32.6662 0.150898C30.2212 0.0283393 29.445 0 23.2438 0C17.0426 0 16.2664 0.0283393 13.8305 0.141329C11.4036 0.254318 9.73515 0.669103 8.28976 1.26239C6.75479 1.87481 5.38085 2.817 4.23869 4.05142C3.07875 5.2575 2.17778 6.7179 1.60653 8.31962C1.04433 9.85547 0.65188 11.6077 0.544878 14.1704C0.428815 16.7522 0.401978 17.5719 0.401978 24.1201C0.401978 30.6683 0.428815 31.488 0.535816 34.0602C0.642818 36.6229 1.03562 38.3847 1.59781 39.9114C2.17778 41.5319 3.07875 42.9827 4.23869 44.1888C5.38085 45.4136 6.76385 46.3654 8.28069 46.9682C9.73515 47.5619 11.3945 47.9763 13.8218 48.0893C16.2574 48.2026 17.0339 48.2306 23.2351 48.2306C29.4363 48.2306 30.2125 48.2026 32.6484 48.0893C35.0753 47.9763 36.7438 47.5619 38.1892 46.9682C41.2587 45.715 43.6856 43.1524 44.8724 39.9114C45.4342 38.3755 45.827 36.6229 45.934 34.0602C46.041 31.488 46.0679 30.6683 46.0679 24.1201C46.0679 17.5719 46.0588 16.7522 45.9518 14.18ZM41.8387 33.8718C41.7404 36.2272 41.3657 37.4992 41.0534 38.3472C40.286 40.4483 38.7067 42.1159 36.7169 42.9264C35.9139 43.2561 34.7006 43.6518 32.4787 43.7552C30.0696 43.8686 29.3471 43.8965 23.2529 43.8965C17.1587 43.8965 16.4271 43.8686 14.0267 43.7552C11.7961 43.6518 10.5915 43.2561 9.78847 42.9264C8.79827 42.5399 7.89695 41.9275 7.16537 41.1266C6.40695 40.3446 5.82698 39.4024 5.46102 38.3568C5.14873 37.5088 4.77405 36.2272 4.67611 33.8813C4.56876 31.3374 4.54227 30.5741 4.54227 24.1389C4.54227 17.7036 4.56876 16.9311 4.67611 14.3968C4.77405 12.0413 5.14873 10.7693 5.46102 9.92135C5.82698 8.87537 6.40695 7.92397 7.17443 7.15108C7.91473 6.35022 8.80699 5.7378 9.79754 5.35172C10.6006 5.02195 11.8142 4.62631 14.0358 4.52252C16.4449 4.40953 17.1677 4.38119 23.2616 4.38119C29.3648 4.38119 30.0874 4.40953 32.4878 4.52252C34.7184 4.62631 35.923 5.02195 36.726 5.35172C37.7162 5.7378 38.6175 6.35022 39.3491 7.15108C40.1075 7.93318 40.6875 8.87537 41.0534 9.92135C41.3657 10.7693 41.7404 12.0505 41.8387 14.3968C41.9457 16.9407 41.9725 17.7036 41.9725 24.1389C41.9725 30.5741 41.9457 31.3279 41.8387 33.8718Z" fill="#5878DB" fill-opacity="0.7"/>
<path d="M23.2438 11.7302C16.7662 11.7302 11.5106 17.2796 11.5106 24.12C11.5106 30.9605 16.7662 36.5099 23.2438 36.5099C29.7218 36.5099 34.977 30.9605 34.977 24.12C34.977 17.2796 29.7218 11.7302 23.2438 11.7302ZM23.2438 32.157C19.0415 32.157 15.6328 28.5579 15.6328 24.12C15.6328 19.6822 19.0415 16.0831 23.2438 16.0831C27.4465 16.0831 30.8549 19.6822 30.8549 24.12C30.8549 28.5579 27.4465 32.157 23.2438 32.157Z" fill="#5878DB" fill-opacity="0.7"/>
<path d="M38.1805 11.2404C38.1805 12.8377 36.954 14.1328 35.441 14.1328C33.9283 14.1328 32.7018 12.8377 32.7018 11.2404C32.7018 9.64268 33.9283 8.3479 35.441 8.3479C36.954 8.3479 38.1805 9.64268 38.1805 11.2404Z" fill="#5878DB" fill-opacity="0.7"/>
</g>
<defs>
<clipPath id="clip0">
<rect width="45.6747" height="48.2308" fill="white" transform="translate(0.321777)"/>
</clipPath>
</defs>
</svg>
