<svg width="46" height="49" viewBox="0 0 46 49" fill="none" xmlns="http://www.w3.org/2000/svg">
<g clip-path="url(#clip0)">
<path d="M45.6748 9.16093C43.9763 9.94769 42.1664 10.4692 40.2795 10.7224C42.2206 9.49854 43.7022 7.57534 44.3988 5.25725C42.5889 6.3967 40.5906 7.20155 38.461 7.6507C36.7425 5.71845 34.2932 4.52173 31.6212 4.52173C26.4371 4.52173 22.2636 8.96499 22.2636 14.4121C22.2636 15.1958 22.3264 15.9494 22.4806 16.6668C14.6959 16.2659 7.80754 12.3261 3.18011 6.32435C2.37224 7.80444 1.89836 9.49854 1.89836 11.3223C1.89836 14.7467 3.56834 17.7822 6.05762 19.5396C4.55321 19.5094 3.07734 19.0482 1.82699 18.3218C1.82699 18.3519 1.82699 18.3911 1.82699 18.4303C1.82699 23.2353 5.07276 27.2264 9.32908 28.1458C8.56688 28.3658 7.73617 28.4713 6.87406 28.4713C6.27458 28.4713 5.66938 28.4351 5.1013 28.3025C6.31454 32.2182 9.75728 35.097 13.8509 35.1905C10.6651 37.8221 6.61999 39.4076 2.24092 39.4076C1.47301 39.4076 0.736506 39.3715 0 39.272C4.14784 42.0965 9.06359 43.7092 14.3647 43.7092C31.5955 43.7092 41.016 28.6371 41.016 15.5726C41.016 15.1355 41.0017 14.7135 40.9817 14.2945C42.8401 12.9018 44.4016 11.1625 45.6748 9.16093Z" fill="#5878DB" fill-opacity="0.7"/>
</g>
<defs>
<clipPath id="clip0">
<rect width="45.6748" height="48.2308" fill="white"/>
</clipPath>
</defs>
</svg>
